<?xml version="1.0" encoding="utf-8"?>
<!-- Generator: Adobe Illustrator 18.1.1, SVG Export Plug-In . SVG Version: 6.00 Build 0)  -->
<svg version="1.1" id="Layer_1" xmlns="http://www.w3.org/2000/svg" xmlns:xlink="http://www.w3.org/1999/xlink" x="0px" y="0px"
	 viewBox="0 0 490.9 184.9" enable-background="new 0 0 490.9 184.9" xml:space="preserve">
<path fill="#27AAE1" d="M212.7,149.8l-6.1-3.5c7.3-12.6,11.2-27,11.2-41.7c0-45.9-37.3-83.2-83.2-83.2c-45.9,0-83.2,37.3-83.2,83.2
	c0,14.5,3.8,28.8,11,41.3l-6.1,3.5c-7.8-13.6-11.9-29.1-11.9-44.8c0-49.8,40.5-90.2,90.2-90.2c49.8,0,90.2,40.5,90.2,90.2
	C224.8,120.6,220.6,136.2,212.7,149.8z"/>
<path fill="none" d="M155.7,108.1c-2.3,3.3-5.5,7.6-8.9,11c0,0,0,0,0,0c0,0,2.7,1.3,2.3,5.1c0,0-1.6,5,1.8,5.4c0,0-0.2,0.9-2,1
	c0,0-2.5-0.5-2-2.3c0,0,1.2-6.6-2.2-7.3l0,0c-2.4,2.1-4.8,3.5-7,3.6c-7,0.4-16.8-11.4-19.9-15.4c1.7,8.3,2.1,17.5-0.5,26.7
	c1.5-0.1,3-0.2,4.6-0.2c2.2-0.1,4.5-0.2,6.7-0.3c2.2,0,4.5,0,6.7,0l3.4,0c1.1,0,2.3,0,3.4,0c4.8,0.2,9.6,0.4,14.4,0.8
	C153.5,126.6,153.9,116.9,155.7,108.1z"/>
<path fill="#F8981D" d="M277,169.6c-1.9-0.9-4.7-2.2-8.2-3.9c-1.8-0.8-3.7-1.8-5.9-2.7c-2.2-0.9-4.5-1.9-7.1-2.9
	c-2.5-1-5.2-2.2-8.1-3.2c-2.9-1-5.9-2.1-9.1-3.2c-1.6-0.6-3.2-1.1-4.8-1.7c-1.7-0.5-3.4-1.1-5.1-1.6c-1.7-0.5-3.5-1.1-5.3-1.6
	c-1.8-0.5-3.6-1.1-5.5-1.6c-3.7-1-7.6-2-11.5-3c-2-0.5-4-0.9-6-1.3c-2-0.4-4.1-0.9-6.1-1.3c-1-0.2-2.1-0.4-3.1-0.7
	c-1-0.2-2.1-0.4-3.2-0.5c-2.1-0.4-4.2-0.7-6.4-1.1c-4.3-0.8-8.6-1.2-13-1.8c-2.1-0.2-4.2-0.5-6.4-0.7c-0.9-3.6-3.8-17.1-1.2-32.9
	l0.7,0.2l0.8-2.7l-1-0.2c1.7-8.4,5-17.4,11.1-25.7c0,0,3-3.5,3.6,7.9c0,0,0.7,11.8,3.2,13.1c0,0,5.5-10.9,0-18.2c0,0,6.6,8.6,11,23
	c0,0,3.3-18-8.5-26.3c0,0,12.1,5.5,18.4,15.8c0,0,1.5-22.4-21.5-20.3c0,0,6-4.8,19.5,1.9c0,0-7.6-12.1-22.2-3.3
	c0,0,3.5-17.3-12.4-18.6c0,0,9.9,9.2,9.9,18.1c0,0-6.5-22-25.5-12.4c0,0,12.5,2.5,16.6,7c0,0-16.2-7.8-21.7,8.5
	c0,0,8.4-6.3,25.4-1.5c0,0-15.6,0.6-17.6,11.3c0,0,6.7-1.4,11.3-5c0,0,8.3-6.2,9.2-3.2c0,0-9,11.8-13.9,28.1
	c-10.7,12.2-22.8,16.5-22.8,16.5c-0.9,0-2-0.3-3.1-0.8c-0.5-5.9-7-4.5-7-4.5c-3.1-2.4-6-5.1-7.6-6.7c-4.6-17.9-15.1-31.3-15.1-31.3
	c0.9-3,9.2,3.2,9.2,3.2c4.6,3.6,11.3,5,11.3,5c-2-10.6-17.6-11.3-17.6-11.3c17-4.8,25.4,1.5,25.4,1.5c-5.5-16.2-21.7-8.5-21.7-8.5
	c4.1-4.5,16.6-7,16.6-7C105.8,48.1,99.4,70,99.4,70c0-8.8,9.8-18.1,9.8-18.1c-15.9,1.4-12.4,18.6-12.4,18.6
	c-14.6-8.8-22.2,3.3-22.2,3.3C88,67.1,94.1,72,94.1,72c-22.9-2.2-21.5,20.3-21.5,20.3C78.9,81.9,91,76.4,91,76.4
	c-11.8,8.3-8.6,26.3-8.6,26.3c4.4-14.4,11-23,11-23c-5.5,7.3,0,18.2,0,18.2c2.5-1.4,3.2-13.1,3.2-13.1c0.6-11.3,3.6-7.9,3.6-7.9
	c6.7,9.2,10.1,18.9,11.7,27.8H111v1.1l1.1,0.5c2.4,15.8-1,28.6-1.5,30.4c-0.7,0.1-1.5,0.1-2.2,0.2c-2.2,0.2-4.4,0.5-6.5,0.8
	c-2.2,0.3-4.3,0.5-6.4,0.9c-2.1,0.3-4.2,0.7-6.3,1c-2.1,0.3-4.1,0.7-6.2,1.2c-2,0.4-4.1,0.8-6,1.3c-3.9,1-7.8,1.9-11.5,3
	c-7.5,2-14.4,4.5-20.7,6.9c-6.3,2.4-11.9,5-16.8,7.4c-4.9,2.4-9,4.8-12.4,6.8c-3.3,2-5.9,3.8-7.6,5c-1.7,1.2-2.6,2-2.6,2
	s1-0.6,2.8-1.6c1.8-1,4.5-2.4,8-4.1c3.5-1.7,7.8-3.6,12.8-5.6c1.2-0.5,2.6-1,3.9-1.5c1.3-0.5,2.7-1,4.1-1.5c1.4-0.5,2.9-1,4.4-1.5
	c1.5-0.5,3.1-1,4.6-1.5c6.3-2,13.2-3.9,20.6-5.6c3.7-0.9,7.5-1.6,11.4-2.4c2-0.4,3.9-0.7,5.9-1c2-0.3,4-0.7,6.1-1
	c2-0.3,4.1-0.6,6.2-0.8c2.1-0.3,4.2-0.4,6.3-0.7c4.2-0.5,8.5-0.7,12.8-1c2.2-0.2,4.3-0.2,6.5-0.3c2.2-0.1,4.4-0.1,6.6-0.2
	c2.2,0,4.4,0,6.6,0l3.3,0c1.1,0,2.2,0,3.3,0.1c8.8,0.2,17.6,0.7,26.2,1.6c8.6,0.9,17.1,2,25.3,3.4c4.1,0.8,8.1,1.4,12,2.2
	c3.9,0.8,7.7,1.6,11.4,2.4c3.7,0.8,7.3,1.8,10.8,2.7c1.7,0.4,3.5,0.8,5.1,1.3c1.7,0.5,3.3,0.9,4.9,1.4c3.2,0.9,6.3,1.8,9.2,2.6
	c2.9,0.8,5.6,1.8,8.2,2.6c2.6,0.8,5,1.6,7.2,2.3c2.3,0.7,4.3,1.5,6.1,2.1c3.7,1.3,6.6,2.3,8.6,2.9c2,0.7,3,1,3,1
	S278.9,170.5,277,169.6z M138.6,135.5l-3.4,0c-2.2,0-4.5,0-6.7,0c-2.2,0.1-4.5,0.2-6.7,0.3c-1.5,0.1-3.1,0.1-4.6,0.2
	c2.6-9.2,2.2-18.4,0.5-26.7c3.1,4,12.9,15.8,19.9,15.4c2.2-0.1,4.6-1.6,7-3.6l0,0c3.4,0.7,2.2,7.3,2.2,7.3c-0.5,1.8,2,2.3,2,2.3
	c1.8-0.1,2-1,2-1c-3.4-0.5-1.8-5.4-1.8-5.4c0.5-3.8-2.3-5.1-2.3-5.1c0,0,0,0,0,0c3.4-3.4,6.6-7.8,8.9-11c-1.8,8.8-2.2,18.5,0.7,28.2
	c-4.8-0.4-9.6-0.6-14.4-0.8C140.9,135.5,139.8,135.5,138.6,135.5z"/>
<g>
	<path fill="#27AAE1" d="M251.5,101.7c0-10.3,7.8-16.9,17.5-16.9c6.8,0,11,3.4,13.5,7.3l-5.7,3.1c-1.5-2.3-4.3-4.3-7.7-4.3
		c-6,0-10.3,4.6-10.3,10.7c0,6.2,4.3,10.7,10.3,10.7c2.9,0,5.6-1.3,6.9-2.5V106h-8.6v-6.1h15.6v12.6c-3.3,3.7-8,6.1-13.9,6.1
		C259.4,118.6,251.5,112,251.5,101.7z"/>
	<path fill="#27AAE1" d="M304.2,118v-3c-1.6,1.8-4.5,3.6-8.3,3.6c-5.2,0-7.6-2.8-7.6-7.5V94.3h6.2v14.4c0,3.3,1.7,4.4,4.4,4.4
		c2.4,0,4.3-1.3,5.4-2.7v-16h6.2V118H304.2z"/>
	<path fill="#27AAE1" d="M316.6,118V85.3h6.2V118H316.6z"/>
	<path fill="#27AAE1" d="M330.5,118V99.7h-3.9v-5.4h3.9v-1c0-5.3,3.2-8.5,7.9-8.5c2.3,0,4.8,0.6,6.2,2.3l-2.4,3.8
		c-0.6-0.6-1.5-0.9-2.6-0.9c-1.8,0-2.9,1.1-2.9,3.4v1h4.8v5.4h-4.8V118H330.5z"/>
	<path fill="#27AAE1" d="M356.3,101.7c0-10.1,7.6-16.9,17.5-16.9c7.2,0,11.3,3.9,13.6,8l-6,2.9c-1.4-2.6-4.3-4.8-7.6-4.8
		c-6,0-10.3,4.6-10.3,10.7c0,6.2,4.3,10.7,10.3,10.7c3.3,0,6.3-2.1,7.6-4.8l6,2.9c-2.3,4.1-6.5,8-13.6,8
		C363.9,118.6,356.3,111.7,356.3,101.7z"/>
	<path fill="#27AAE1" d="M389.8,106.1c0-6.7,4.7-12.4,12.5-12.4c7.8,0,12.6,5.7,12.6,12.4c0,6.7-4.7,12.5-12.6,12.5
		C394.6,118.6,389.8,112.8,389.8,106.1z M408.4,106.1c0-3.7-2.2-6.9-6.1-6.9c-3.9,0-6,3.2-6,6.9c0,3.7,2.2,6.9,6,6.9
		C406.3,113,408.4,109.8,408.4,106.1z"/>
	<path fill="#27AAE1" d="M433.8,118v-2.5c-1.6,2-4.4,3.1-7.5,3.1c-3.8,0-8.2-2.5-8.2-7.8c0-5.6,4.4-7.6,8.2-7.6c3.2,0,5.9,1,7.5,2.9
		v-3c0-2.4-2.1-4-5.2-4c-2.5,0-4.9,1-6.8,2.8l-2.5-4.4c2.9-2.6,6.6-3.7,10.3-3.7c5.4,0,10.4,2.2,10.4,9V118H433.8z M433.8,112.3
		v-2.9c-1-1.4-3-2.1-5-2.1c-2.5,0-4.5,1.3-4.5,3.6c0,2.3,2,3.5,4.5,3.5C430.8,114.4,432.7,113.7,433.8,112.3z"/>
	<path fill="#27AAE1" d="M444.1,114.9l2.7-4.5c1.8,1.7,5.2,3.3,8.2,3.3c2.7,0,4-1,4-2.5c0-3.9-14-0.7-14-10c0-4,3.4-7.5,9.7-7.5
		c4,0,7.2,1.4,9.5,3.2l-2.5,4.4c-1.4-1.5-4.1-2.7-7-2.7c-2.3,0-3.7,1-3.7,2.3c0,3.5,14.1,0.5,14.1,10.1c0,4.4-3.7,7.5-10.3,7.5
		C450.6,118.6,446.6,117.2,444.1,114.9z"/>
	<path fill="#27AAE1" d="M470.8,112.1V99.7h-3.9v-5.4h3.9v-6.5h6.2v6.5h4.8v5.4h-4.8v10.6c0,1.5,0.8,2.6,2.2,2.6
		c0.9,0,1.8-0.3,2.2-0.7l1.3,4.8c-0.9,0.8-2.6,1.5-5.2,1.5C473.2,118.6,470.8,116.3,470.8,112.1z"/>
	<path fill="#F8981D" d="M298.5,145.3c1.2,0.8,3,1.4,4.9,1.4c2.8,0,4.4-1.5,4.4-3.6c0-2-1.1-3.1-4-4.2c-3.4-1.2-5.6-3-5.6-6
		c0-3.3,2.7-5.7,6.8-5.7c2.2,0,3.7,0.5,4.7,1l-0.7,2.2c-0.7-0.4-2.1-1-4-1c-2.9,0-4,1.7-4,3.2c0,2,1.3,2.9,4.2,4.1
		c3.6,1.4,5.4,3.1,5.4,6.2c0,3.2-2.4,6.1-7.4,6.1c-2,0-4.2-0.6-5.4-1.3L298.5,145.3z"/>
	<path fill="#F8981D" d="M324.1,138.4c0-1.9-0.1-3.5-0.1-4.9h2.5l0.1,2.6h0.1c1.1-1.8,2.9-2.9,5.4-2.9c3.7,0,6.4,3.1,6.4,7.7
		c0,5.4-3.3,8.1-6.9,8.1c-2,0-3.7-0.9-4.7-2.4h-0.1v8.2h-2.7V138.4z M326.9,142.4c0,0.4,0.1,0.8,0.1,1.1c0.5,1.9,2.2,3.2,4.1,3.2
		c2.9,0,4.6-2.4,4.6-5.8c0-3-1.6-5.6-4.5-5.6c-1.9,0-3.6,1.3-4.2,3.4c-0.1,0.3-0.2,0.7-0.2,1.1V142.4z"/>
	<path fill="#F8981D" d="M355,129.2c0,0.9-0.7,1.7-1.7,1.7c-1,0-1.7-0.8-1.7-1.7c0-1,0.7-1.7,1.7-1.7
		C354.3,127.5,355,128.2,355,129.2z M351.9,148.6v-15.1h2.7v15.1H351.9z"/>
	<path fill="#F8981D" d="M369.2,138.2c0-1.8,0-3.3-0.1-4.7h2.4l0.1,3h0.1c0.7-2,2.3-3.3,4.2-3.3c0.3,0,0.5,0,0.8,0.1v2.6
		c-0.3-0.1-0.6-0.1-0.9-0.1c-1.9,0-3.3,1.5-3.7,3.5c-0.1,0.4-0.1,0.8-0.1,1.3v8.1h-2.7V138.2z"/>
	<path fill="#F8981D" d="M392.6,129.2c0,0.9-0.7,1.7-1.7,1.7c-1,0-1.7-0.8-1.7-1.7c0-1,0.7-1.7,1.7-1.7
		C391.9,127.5,392.6,128.2,392.6,129.2z M389.5,148.6v-15.1h2.7v15.1H389.5z"/>
	<path fill="#F8981D" d="M410.1,129.1v4.3h3.9v2.1h-3.9v8.1c0,1.9,0.5,2.9,2.1,2.9c0.7,0,1.2-0.1,1.6-0.2l0.1,2.1
		c-0.5,0.2-1.4,0.4-2.4,0.4c-1.3,0-2.3-0.4-3-1.2c-0.8-0.8-1.1-2.2-1.1-3.9v-8.2h-2.3v-2.1h2.3v-3.6L410.1,129.1z"/>
	<path fill="#F8981D" d="M426.8,145.8c0.8,0.5,2.2,1.1,3.6,1.1c2,0,2.9-1,2.9-2.2c0-1.3-0.8-2-2.8-2.8c-2.7-1-4-2.5-4-4.3
		c0-2.4,2-4.4,5.2-4.4c1.5,0,2.9,0.4,3.7,0.9l-0.7,2c-0.6-0.4-1.7-0.9-3.1-0.9c-1.6,0-2.5,0.9-2.5,2.1c0,1.2,0.9,1.8,2.9,2.6
		c2.6,1,4,2.3,4,4.6c0,2.7-2.1,4.5-5.7,4.5c-1.7,0-3.2-0.4-4.2-1L426.8,145.8z"/>
</g>
</svg>
